<svg width="176" height="42" viewBox="0 0 176 42" fill="none" xmlns="http://www.w3.org/2000/svg">
<g clip-path="url(#clip0_1756_3195)">
<path d="M111.155 16.6987C110.691 15.765 110.009 14.9925 109.109 14.385C108.49 13.9688 107.786 13.6387 107.002 13.3987C108.08 12.93 108.977 12.2588 109.685 11.3813C110.624 10.2225 111.095 8.8275 111.095 7.1925C111.095 4.98 110.273 3.22875 108.634 1.935C106.99 0.645001 104.65 0 101.605 0H88.1016V27.8625H101.963C104.028 27.8625 105.796 27.5475 107.266 26.9137C108.735 26.28 109.866 25.365 110.661 24.1688C111.456 22.9688 111.852 21.5662 111.852 19.9612C111.852 18.7237 111.618 17.6363 111.159 16.7025L111.155 16.6987ZM95.0511 5.33625H100.256C101.631 5.33625 102.626 5.56875 103.233 6.02625C103.844 6.4875 104.145 7.2075 104.145 8.17875C104.145 9.15 103.84 9.8775 103.233 10.3538C102.623 10.8263 101.631 11.0663 100.256 11.0663H95.0511V5.33625ZM104.759 20.5725C104.665 20.9025 104.514 21.1913 104.303 21.4425C104.092 21.6938 103.84 21.8962 103.55 22.0537C103.259 22.2112 102.894 22.3313 102.457 22.41C102.02 22.4888 101.537 22.53 101.006 22.53H95.0473V16.365H101.006C101.533 16.365 102.02 16.41 102.457 16.5038C102.894 16.5975 103.256 16.7287 103.55 16.8975C103.84 17.07 104.092 17.2725 104.303 17.5088C104.514 17.745 104.669 18.03 104.759 18.36C104.854 18.69 104.899 19.065 104.899 19.485C104.899 19.8788 104.854 20.2425 104.759 20.5725Z" fill="#52648A"/>
<path d="M135.638 0L122.768 16.1062V0H115.977V27.8625H121.339L134.206 11.625V27.8625H141.001V0H135.638Z" fill="#52648A"/>
<path d="M169.44 0L161.179 20.1713L152.759 0H146.164V27.8625H152.759V12.8887L159.113 27.8625H163.044L169.44 12.735V27.8625H176.031V0H169.44Z" fill="#52648A"/>
<path d="M35.5203 20.3991L29.8785 12.9141H0L20.5208 40.5441H20.5245L35.5203 20.3991Z" fill="url(#paint0_linear_1756_3195)"/>
<path d="M50.7038 0.00390625L35.5195 20.4002L50.7038 40.5452L79.9831 0.00390625H50.7038Z" fill="url(#paint1_linear_1756_3195)"/>
<path d="M20.5234 40.5454H50.7035L35.5192 20.4004L20.5234 40.5454Z" fill="url(#paint2_linear_1756_3195)"/>
<path d="M88.8062 39.281V34.0723H88.0977V40.5185H88.678L92.59 35.2985V40.5185H93.291V34.0723H92.7106L88.8062 39.281Z" fill="#52648A"/>
<path d="M102.296 36.926H98.41V34.0723H97.6562V40.5185H98.41V37.5748H102.296V40.5185H103.049V34.0723H102.296V36.926Z" fill="#52648A"/>
<path d="M111.563 37.4248C111.412 37.331 111.239 37.2635 111.047 37.2148C111.325 37.1173 111.552 36.9673 111.732 36.761C111.966 36.491 112.087 36.1573 112.087 35.756C112.087 35.2198 111.902 34.8035 111.537 34.511C111.171 34.2185 110.655 34.0723 109.991 34.0723H107.398V40.5185H110.101C110.553 40.5185 110.941 40.451 111.258 40.316C111.574 40.181 111.819 39.9823 111.989 39.716C112.158 39.4498 112.241 39.1273 112.241 38.741C112.241 38.441 112.185 38.1823 112.068 37.961C111.951 37.7398 111.781 37.5598 111.563 37.421V37.4248ZM108.137 34.676H109.882C110.361 34.676 110.722 34.7735 110.971 34.9648C111.22 35.156 111.344 35.441 111.344 35.8198C111.344 36.1985 111.22 36.4648 110.971 36.6598C110.722 36.8548 110.361 36.9523 109.882 36.9523H108.137V34.676ZM111.442 39.1648C111.401 39.2923 111.344 39.401 111.261 39.4948C111.182 39.5848 111.084 39.6635 110.967 39.7273C110.851 39.791 110.715 39.8398 110.56 39.8698C110.406 39.8998 110.229 39.9148 110.033 39.9148H108.141V37.556H110.033C110.229 37.556 110.406 37.571 110.56 37.601C110.715 37.631 110.854 37.676 110.967 37.7398C111.084 37.7998 111.182 37.8785 111.261 37.9723C111.341 38.066 111.401 38.1748 111.442 38.3023C111.484 38.426 111.503 38.5723 111.503 38.7373C111.503 38.9023 111.484 39.0373 111.442 39.1685V39.1648Z" fill="#52648A"/>
<path d="M116.367 40.5185H120.456V39.8885H117.102V37.5635H120.264V36.9335H117.102V34.7023H120.456V34.0723H116.367V40.5185Z" fill="#52648A"/>
<path d="M127.298 34.6765C127.664 34.6765 127.999 34.7365 128.305 34.8527C128.606 34.9727 128.9 35.164 129.183 35.4227L129.477 34.8115C129.221 34.5415 128.9 34.339 128.52 34.2002C128.139 34.0615 127.728 33.9902 127.28 33.9902C126.643 33.9902 126.096 34.1252 125.644 34.3915C125.192 34.6615 124.841 35.0402 124.6 35.5277C124.359 36.0152 124.238 36.604 124.238 37.2865C124.238 37.969 124.359 38.5577 124.6 39.049C124.841 39.544 125.188 39.9227 125.644 40.1927C126.096 40.4627 126.643 40.594 127.28 40.594C127.728 40.594 128.139 40.5227 128.52 40.3802C128.9 40.2377 129.217 40.0352 129.477 39.7727L129.183 39.1615C128.9 39.424 128.61 39.6152 128.305 39.7315C128.003 39.8515 127.668 39.9115 127.298 39.9115C126.571 39.9115 126.013 39.6827 125.625 39.2215C125.241 38.7602 125.045 38.1152 125.045 37.2865C125.045 36.4577 125.237 35.8127 125.625 35.359C126.01 34.9015 126.567 34.6727 127.298 34.6727V34.6765Z" fill="#52648A"/>
<path d="M132.66 34.721H135.012V40.5185H135.773V34.721H138.125V34.0723H132.66V34.721Z" fill="#52648A"/>
<path d="M142.416 39.281V34.0723H141.707V40.5185H142.284L146.199 35.2985V40.5185H146.897V34.0723H146.32L142.416 39.281Z" fill="#52648A"/>
<path d="M156.61 34.0723H155.848V39.8698H152.015V34.0723H151.262V40.5185H156.839V41.9548H157.529V39.8698H156.61V34.0723Z" fill="#52648A"/>
<path d="M161.99 39.281V34.0723H161.285V40.5185H161.862L165.777 35.2985V40.5185H166.475V34.0723H165.898L161.99 39.281Z" fill="#52648A"/>
<path d="M175.453 34.0723L171.548 39.281V34.0723H170.84V40.5185H171.42L175.332 35.2985V40.5185H176.029V34.0723H175.453Z" fill="#52648A"/>
</g>
<defs>
<linearGradient id="paint0_linear_1756_3195" x1="9.68188" y1="5.87156" x2="30.0896" y2="33.5202" gradientUnits="userSpaceOnUse">
<stop stop-color="#73A8BA"/>
<stop offset="1" stop-color="#52648A"/>
</linearGradient>
<linearGradient id="paint1_linear_1756_3195" x1="70.5273" y1="-6.86984" x2="40.955" y2="33.8156" gradientUnits="userSpaceOnUse">
<stop stop-color="#CBDFE6"/>
<stop offset="1" stop-color="#73A8BA"/>
</linearGradient>
<linearGradient id="paint2_linear_1756_3195" x1="35.6135" y1="20.4004" x2="35.6135" y2="40.5454" gradientUnits="userSpaceOnUse">
<stop stop-color="white"/>
<stop offset="1" stop-color="#73A8BA"/>
</linearGradient>
<clipPath id="clip0_1756_3195">
<rect width="176" height="42" fill="white"/>
</clipPath>
</defs>
</svg>
